<svg width="15" height="25" viewBox="0 0 15 25" fill="currentColor" xmlns="http://www.w3.org/2000/svg" id="path">
<path fill-rule="evenodd" clip-rule="evenodd" d="M0.555057 11.3339L11.1906 0.907034C11.4366 0.665679 11.765 0.532715 12.1151 0.532715C12.4653 0.532715 12.7936 0.665679 13.0396 0.907034L13.8228 1.67472C14.3325 2.17496 14.3325 2.98798 13.8228 3.48745L4.8919 12.2433L13.8328 21.0088C14.0787 21.2502 14.2146 21.5719 14.2146 21.915C14.2146 22.2584 14.0787 22.5802 13.8328 22.8217L13.0495 23.5892C12.8033 23.8306 12.4752 23.9635 12.125 23.9635C11.7749 23.9635 11.4465 23.8306 11.2005 23.5892L0.555057 13.1529C0.308487 12.9108 0.173058 12.5875 0.173831 12.2438C0.173058 11.8989 0.308487 11.5758 0.555057 11.3339Z" fill="#444444"/>
</svg>
