<svg width="15" height="24" viewBox="0 0 15 24" fill="currentColor" xmlns="http://www.w3.org/2000/svg" id="path">
<path fill-rule="evenodd" clip-rule="evenodd" d="M13.9642 11.3339L3.32863 0.907034C3.08264 0.665679 2.75427 0.532715 2.40413 0.532715C2.054 0.532715 1.72563 0.665679 1.47964 0.907034L0.696402 1.67472C0.186746 2.17496 0.186746 2.98798 0.696402 3.48745L9.62735 12.2433L0.686493 21.0088C0.440505 21.2502 0.304688 21.5719 0.304688 21.915C0.304688 22.2584 0.440505 22.5802 0.686493 22.8217L1.46973 23.5892C1.71591 23.8306 2.04409 23.9635 2.39422 23.9635C2.74436 23.9635 3.07273 23.8306 3.31872 23.5892L13.9642 13.1529C14.2108 12.9108 14.3462 12.5875 14.3454 12.2438C14.3462 11.8989 14.2108 11.5758 13.9642 11.3339Z" fill="#444444"/>
</svg>
