<svg width="120" height="120" viewBox="0 0 120 120" fill="currentColor" xmlns="http://www.w3.org/2000/svg" id="path" >
<g clip-path="url(#clip0_16_100)">
<path d="M60 0C26.8594 0 0 26.8594 0 60C0 93.1406 26.8594 120 60 120C93.1406 120 120 93.1406 120 60C120 26.8594 93.1406 0 60 0ZM43.2188 85.1016H31.5234V47.6719H43.2188V85.1016ZM37.0547 42.9844H36.9609C32.7188 42.9844 29.9766 40.125 29.9766 36.4922C29.9766 32.7891 32.8125 30 37.125 30C41.4375 30 44.0859 32.7891 44.1797 36.4922C44.2031 40.1016 41.4609 42.9844 37.0547 42.9844ZM90 85.1016H76.7344V65.7422C76.7344 60.6797 74.6719 57.2109 70.1016 57.2109C66.6094 57.2109 64.6641 59.5547 63.7734 61.8047C63.4453 62.6016 63.4922 63.7266 63.4922 64.875V85.1016H50.3438C50.3438 85.1016 50.5078 50.7891 50.3438 47.6719H63.4922V53.5547C64.2656 50.9766 68.4609 47.3203 75.1641 47.3203C83.4844 47.3203 90 52.7109 90 64.2891V85.1016Z" />
</g>
<defs>
<clipPath id="clip0_16_100">
<rect width="120" height="120" fill="white"/>
</clipPath>
</defs>
</svg>
