<svg width="31" height="30" viewBox="0 0 31 30" fill="none" xmlns="http://www.w3.org/2000/svg">
<path fill-rule="evenodd" clip-rule="evenodd" d="M20.6949 21.7859C18.9628 23.1715 16.7656 24 14.375 24C8.78312 24 4.25 19.4669 4.25 13.875C4.25 8.28312 8.78312 3.75 14.375 3.75C19.9669 3.75 24.5 8.28312 24.5 13.875C24.5 16.2656 23.6715 18.4628 22.2859 20.1949L26.4205 24.3295C26.8598 24.7688 26.8598 25.4812 26.4205 25.9205C25.9812 26.3598 25.2688 26.3598 24.8295 25.9205L20.6949 21.7859ZM6.5 13.875C6.5 9.52576 10.0258 6 14.375 6C18.7242 6 22.25 9.52576 22.25 13.875C22.25 15.9967 21.411 17.9224 20.0466 19.3384C20.0081 19.368 19.971 19.4005 19.9358 19.4358C19.9005 19.471 19.868 19.5081 19.8384 19.5466C18.4224 20.911 16.4967 21.75 14.375 21.75C10.0258 21.75 6.5 18.2242 6.5 13.875Z" fill="#F0F4F8"/>
</svg>
