<svg width="120" height="120" viewBox="0 0 120 120" fill="none" xmlns="http://www.w3.org/2000/svg">
<g clip-path="url(#clip0_16_98)">
<path d="M60 0C26.8594 0 0 26.8594 0 60C0 93.1406 26.8594 120 60 120C93.1406 120 120 93.1406 120 60C120 26.8594 93.1406 0 60 0ZM83.9531 50.6719C83.9766 51.1875 83.9766 51.7266 83.9766 52.2656C83.9766 68.5547 71.5781 87.3516 48.8906 87.3516C41.9297 87.3516 35.4375 85.3125 30 81.8203C30.9609 81.9375 31.9453 81.9844 32.9531 81.9844C38.7188 81.9844 44.0391 80.0156 48.2578 76.7109C42.8672 76.6172 38.2969 73.0547 36.75 68.1562C37.5 68.2969 38.2734 68.3672 39.0703 68.3672C40.1953 68.3672 41.2969 68.2266 42.3281 67.9219C36.6797 66.7969 32.4375 61.8047 32.4375 55.8281V55.6875C34.1016 56.6016 36 57.1641 38.0156 57.2344C34.7109 55.0313 32.5312 51.2344 32.5312 46.9688C32.5312 44.7188 33.1406 42.5859 34.1953 40.7578C40.2891 48.2344 49.3594 53.1328 59.6016 53.6484C59.3906 52.7578 59.2734 51.8203 59.2734 50.8359C59.2734 44.0391 64.8047 38.5078 71.6016 38.5078C75.1406 38.5078 78.3516 40.0078 80.6016 42.3984C83.4141 41.8359 86.0391 40.8281 88.4297 39.3984C87.5156 42.2812 85.5469 44.6953 83.0156 46.2188C85.5 45.9141 87.8906 45.2578 90.0938 44.2734C88.4531 46.7578 86.3672 48.9141 83.9531 50.6719Z" fill="#FFC600"/>
</g>
<defs>
<clipPath id="clip0_16_98">
<rect width="120" height="120" fill="white"/>
</clipPath>
</defs>
</svg>
