<svg width="120" height="120" viewBox="0 0 120 120" fill="none" xmlns="http://www.w3.org/2000/svg">
<g clip-path="url(#clip0_16_102)">
<path d="M120 60C120 71.8669 116.481 83.4672 109.888 93.3342C103.295 103.201 93.9246 110.891 82.961 115.433C71.9974 119.974 59.9335 121.162 48.2946 118.847C36.6557 116.532 25.9648 110.818 17.5736 102.426C9.18247 94.0352 3.46802 83.3443 1.15291 71.7054C-1.1622 60.0665 0.0259969 48.0025 4.56725 37.039C9.10851 26.0754 16.7989 16.7047 26.6658 10.1118C36.5328 3.51894 48.1331 0 60 0C75.913 0 91.1742 6.32141 102.426 17.5736C113.679 28.8258 120 44.087 120 60ZM97.725 60.045C97.725 52.5837 95.5125 45.2899 91.3672 39.0861C87.2219 32.8823 81.3301 28.047 74.4367 25.1916C67.5434 22.3363 59.9582 21.5892 52.6402 23.0449C45.3223 24.5005 38.6004 28.0935 33.3244 33.3694C28.0485 38.6453 24.4555 45.3673 22.9999 52.6852C21.5443 60.0031 22.2913 67.5884 25.1467 74.4817C28.002 81.3751 32.8373 87.2669 39.0411 91.4122C45.245 95.5574 52.5387 97.77 60 97.77C64.9541 97.77 69.8597 96.7942 74.4367 94.8983C79.0137 93.0025 83.1725 90.2237 86.6756 86.7206C90.1787 83.2175 92.9575 79.0587 94.8534 74.4817C96.7492 69.9047 97.725 64.9991 97.725 60.045ZM42.3525 57.045H28.4175C28.9627 51.3444 31.0381 45.8971 34.4245 41.279C37.8108 36.661 42.3821 33.0438 47.655 30.81C48.155 30.6 48.655 30.4025 49.155 30.2175C44.7471 38.4766 42.4126 47.6834 42.3525 57.045ZM42.3525 63.045C42.4143 72.4073 44.7514 81.6142 49.1625 89.8725C48.6525 89.6875 48.15 89.49 47.655 89.28C42.3765 87.0543 37.8 83.4394 34.4125 78.8197C31.025 74.2 28.9532 68.7485 28.4175 63.045H42.3525ZM48.3525 57.045C48.4854 53.5135 48.8941 49.9978 49.575 46.53C50.2563 42.871 51.3769 39.3077 52.9125 35.9175C55.08 31.305 57.8625 28.32 60 28.32C62.1375 28.32 64.92 31.305 67.0875 35.9175C68.622 39.3082 69.7426 42.8713 70.425 46.53C71.1048 49.9979 71.5135 53.5136 71.6475 57.045H48.3525ZM71.6475 63.045C71.5137 66.5764 71.1049 70.092 70.425 73.56C69.7421 77.2185 68.6216 80.7816 67.0875 84.1725C64.92 88.7925 62.1375 91.77 60 91.77C57.8625 91.77 55.08 88.7925 52.9125 84.1725C51.3774 80.782 50.2568 77.2188 49.575 73.56C48.894 70.0922 48.4852 66.5765 48.3525 63.045H71.6475ZM82.4325 37.6125C87.6591 42.8221 90.8965 49.6974 91.5825 57.045H77.6475C77.5863 47.6826 75.2492 38.4755 70.8375 30.2175C71.3475 30.4025 71.85 30.6025 72.345 30.8175C76.1163 32.407 79.5424 34.7149 82.4325 37.6125ZM77.6475 63.045H91.5825C91.0366 68.7453 88.9608 74.1923 85.5746 78.8102C82.1883 83.4281 77.6175 87.0455 72.345 89.28C71.845 89.495 71.345 89.695 70.845 89.88C75.2555 81.6191 77.5901 72.4093 77.6475 63.045Z" fill="#FFC600"/>
</g>
<defs>
<clipPath id="clip0_16_102">
<rect width="120" height="120" fill="white"/>
</clipPath>
</defs>
</svg>
